<svg fill="none" height="24" viewBox="0 0 24 24" width="24" xmlns="http://www.w3.org/2000/svg"><g stroke="#141b34" stroke-linecap="round" stroke-linejoin="round" stroke-width="1.5"><path d="m12 15c.3229 0 .6069.2004 1.1749.6011l3.7442 2.642c2.1851 1.5418 3.2776 2.3127 3.0517 3.0348m-7.9708-6.2779c-.3229 0-.6069.2004-1.1749.6011l-3.74422 2.642c-2.18503 1.5418-3.27755 2.3127-3.05173 3.0348m7.97085-6.2779v-3.5m7.9708 9.7779c-.2258.7221-1.5594.7221-4.2265.7221h-7.48857c-2.66717 0-4.00075 0-4.22658-.7221m15.94165 0v-13.2779m-15.94165 13.2779v-13.2779"/><path d="m12 2c.3229 0 .6069.20038 1.1749.60114l3.7442 2.64197c2.1851 1.54176 3.2776 2.31264 3.0517 3.03477-.2258.72212-1.5594.72212-4.2265.72212h-7.48857c-2.66717 0-4.00075 0-4.22658-.72212-.22582-.72213.8667-1.49301 3.05173-3.03477l3.74422-2.64197c.568-.40076.852-.60114 1.1749-.60114zm0 0v4.5"/></g></svg>